# xmcd
#
# Track frame offsets: 
#        182
#        20937
#        40442
#        58365
#        74550
#        92622
#        98242
#        119752
#        156742
#        183090
#        204680
#
# Disc length: 2766 seconds
#
# Revision: 3
# Processed by: cddbd v1.5.2PL0 Copyright (c) Steve Scherf et al.
# Submitted via: ExactAudioCopy v0.99pb3
#
DISCID=af0acc0b
DTITLE=Soul for Real - Candy Rain
DYEAR=1994
DGENRE=Soul
TTITLE0=Candy Rain
TTITLE1=Every little thing I do
TTITLE2=All in my mind
TTITLE3=If you want it
TTITLE4=I wanna be your friend
TTITLE5=Ain't no sunshine
TTITLE6=Spend the night
TTITLE7=I don't know
TTITLE8=If only you knew
TTITLE9=Thinking of you
TTITLE10=Piano interlude
EXTD=
EXTT0=
EXTT1=
EXTT2=
EXTT3=
EXTT4=
EXTT5=
EXTT6=
EXTT7=
EXTT8=
EXTT9=
EXTT10=
PLAYORDER=
